<svg xmlns="http://www.w3.org/2000/svg" viewBox="0 0 960 600" width="960" height="600" role="img" aria-label="Sign-in screen">
<defs><style>
  .t{font-family:-apple-system,BlinkMacSystemFont,'Segoe UI',Roboto,Arial,sans-serif}
  .h{font-weight:700} .m{fill:#8b7f6b} .i{fill:#241c10}
</style></defs>
<rect width="960" height="600" fill="#faf7f2"/><rect width="960" height="600" fill="#faf7f2"/><rect x="0" y="0" width="960" height="34" fill="#efe8db"/><circle cx="22" cy="17" r="5.5" fill="#e0796b"/><circle cx="40" cy="17" r="5.5" fill="#e3b341"/><circle cx="58" cy="17" r="5.5" fill="#7bb87b"/><rect x="60" y="90" width="30" height="30" rx="6" fill="#c5a059" opacity=".9"/><text x="100" y="104" class="t h" font-size="12" fill="#241c10" text-anchor="start">ABDULMOHSIN ALTHEYAB &amp; PARTNERS</text><text x="100" y="118" class="t " font-size="8.5" fill="#8b7f6b" text-anchor="start">ARCHITECTS</text><text x="60" y="300" class="t h" font-size="34" fill="#241c10" text-anchor="start">Welcome back</text><text x="60" y="328" class="t " font-size="12" fill="#8b7f6b" text-anchor="start">Sign in to your account</text><rect x="560" y="150" width="340" height="300" rx="14" fill="#ffffff" stroke="#e6ded0"/><text x="592" y="196" class="t h" font-size="19" fill="#241c10" text-anchor="start">ERP Portal</text><text x="592" y="216" class="t " font-size="10" fill="#8b7f6b" text-anchor="start">Please enter your credentials to continue</text><text x="592" y="250" class="t h" font-size="9.5" fill="#241c10" text-anchor="start">Email / Username</text><rect x="592" y="258" width="276" height="30" rx="7" fill="#faf7f2" stroke="#e6ded0"/><text x="592" y="310" class="t h" font-size="9.5" fill="#241c10" text-anchor="start">Password</text><rect x="592" y="318" width="276" height="30" rx="7" fill="#faf7f2" stroke="#e6ded0"/><rect x="592" y="378" width="276" height="34" rx="8" fill="#c5a059"/><text x="730" y="399" class="t h" font-size="12" fill="#fff" text-anchor="middle">Sign In</text><text x="868" y="366" class="t " font-size="9" fill="#7a5f2c" text-anchor="end">Forgot Password?</text><rect x="810" y="572" width="138" height="19" rx="9.5" fill="#fff" stroke="#e6ded0"/><text x="879" y="585" class="t m" font-size="8.5" text-anchor="middle">illustration — not a screenshot</text></svg>