<svg xmlns="http://www.w3.org/2000/svg" viewBox="0 0 960 600" width="960" height="600" role="img" aria-label="New project form">
<defs><style>
  .t{font-family:-apple-system,BlinkMacSystemFont,'Segoe UI',Roboto,Arial,sans-serif}
  .h{font-weight:700} .mo{font-family:ui-monospace,Menlo,Consolas,monospace}
</style></defs>
<rect x="0" y="0" width="960" height="600" fill="#faf7f2"/><rect x="0" y="0" width="960" height="34" fill="#efe8db"/><circle cx="22" cy="17" r="5.5" fill="#e0796b"/><circle cx="40" cy="17" r="5.5" fill="#e3b341"/><circle cx="58" cy="17" r="5.5" fill="#7bb87b"/><rect x="80" y="9" width="800" height="17" rx="8.5" fill="#fff" stroke="#e6ded0"/><text x="94" y="21.5" class="t" font-size="10" fill="#8b7f6b">your-erp-address/portal-app/projects</text><rect x="0" y="34" width="196" height="566" fill="#241c10"/><rect x="16" y="50" width="26" height="26" rx="6" fill="#c5a059" opacity=".9"/><text x="50" y="62" class="t h" font-size="10" fill="#fff">ATA</text><text x="50" y="73" class="t" font-size="7.5" fill="#9c8c6e">ARCHITECTS</text><text x="16" y="100" class="t h" font-size="7.5" fill="#7a6b4f" letter-spacing="1">PROJECT MANAGEMENT</text><rect x="20" y="110" width="10" height="10" rx="2.5" fill="#5c5241"/><text x="38" y="119" class="t" font-size="10" fill="#b8ab92" font-weight="400">Dashboard</text><rect x="20" y="131" width="10" height="10" rx="2.5" fill="#5c5241"/><text x="38" y="140" class="t" font-size="10" fill="#b8ab92" font-weight="400">Org Chart</text><rect x="8" y="148" width="180" height="19" rx="6" fill="#c5a059" opacity=".2"/><rect x="8" y="148" width="3" height="19" rx="1.5" fill="#c5a059"/><rect x="20" y="152" width="10" height="10" rx="2.5" fill="#e6c47a"/><text x="38" y="161" class="t" font-size="10" fill="#fff" font-weight="600">Projects</text><rect x="20" y="173" width="10" height="10" rx="2.5" fill="#5c5241"/><text x="38" y="182" class="t" font-size="10" fill="#b8ab92" font-weight="400">Teams</text><rect x="20" y="194" width="10" height="10" rx="2.5" fill="#5c5241"/><text x="38" y="203" class="t" font-size="10" fill="#b8ab92" font-weight="400">Gantt Chart</text><rect x="20" y="215" width="10" height="10" rx="2.5" fill="#5c5241"/><text x="38" y="224" class="t" font-size="10" fill="#b8ab92" font-weight="400">Tasks</text><rect x="20" y="236" width="10" height="10" rx="2.5" fill="#5c5241"/><text x="38" y="245" class="t" font-size="10" fill="#b8ab92" font-weight="400">Daily Task</text><rect x="20" y="257" width="10" height="10" rx="2.5" fill="#5c5241"/><text x="38" y="266" class="t" font-size="10" fill="#b8ab92" font-weight="400">Kanban</text><rect x="20" y="278" width="10" height="10" rx="2.5" fill="#5c5241"/><text x="38" y="287" class="t" font-size="10" fill="#b8ab92" font-weight="400">Calendar</text><rect x="20" y="299" width="10" height="10" rx="2.5" fill="#5c5241"/><text x="38" y="308" class="t" font-size="10" fill="#b8ab92" font-weight="400">Contracts</text><text x="16" y="330" class="t h" font-size="7.5" fill="#7a6b4f" letter-spacing="1">AI</text><rect x="8" y="336" width="180" height="19" rx="6" fill="#c5a059" opacity=".12"/><text x="38" y="349" class="t h" font-size="10" fill="#e6c47a">ATA AI CHAT</text><text x="16" y="371" class="t h" font-size="7.5" fill="#7a6b4f" letter-spacing="1">FILES</text><rect x="20" y="381" width="10" height="10" rx="2.5" fill="#5c5241"/><text x="38" y="390" class="t" font-size="10" fill="#b8ab92" font-weight="400">Files</text><rect x="20" y="402" width="10" height="10" rx="2.5" fill="#5c5241"/><text x="38" y="411" class="t" font-size="10" fill="#b8ab92" font-weight="400">File Browser</text><rect x="20" y="423" width="10" height="10" rx="2.5" fill="#5c5241"/><text x="38" y="432" class="t" font-size="10" fill="#b8ab92" font-weight="400">Shared</text><rect x="20" y="444" width="10" height="10" rx="2.5" fill="#5c5241"/><text x="38" y="453" class="t" font-size="10" fill="#b8ab92" font-weight="400">Shares</text><rect x="20" y="465" width="10" height="10" rx="2.5" fill="#5c5241"/><text x="38" y="474" class="t" font-size="10" fill="#b8ab92" font-weight="400">Routing rules</text><rect x="20" y="486" width="10" height="10" rx="2.5" fill="#5c5241"/><text x="38" y="495" class="t" font-size="10" fill="#b8ab92" font-weight="400">File tools</text><text x="16" y="517" class="t h" font-size="7.5" fill="#7a6b4f" letter-spacing="1">ACCOUNT</text><rect x="20" y="527" width="10" height="10" rx="2.5" fill="#5c5241"/><text x="38" y="536" class="t" font-size="10" fill="#b8ab92" font-weight="400">Profile</text><rect x="20" y="548" width="10" height="10" rx="2.5" fill="#5c5241"/><text x="38" y="557" class="t" font-size="10" fill="#b8ab92" font-weight="400">Admin</text><rect x="196" y="34" width="764" height="52" fill="#fff"/><line x1="196" y1="86" x2="960" y2="86" stroke="#e6ded0" stroke-width="1"/><rect x="216" y="49" width="250" height="22" rx="11" fill="#faf7f2" stroke="#e6ded0"/><text x="232" y="64" class="t" font-size="9" fill="#8b7f6b">Search projects, teams, tasks, documents...</text><rect x="810" y="47" width="96" height="26" rx="13" fill="#c5a059"/><text x="858" y="64" class="t h" font-size="10" fill="#fff" text-anchor="middle">+ New Project</text><circle cx="928" cy="60" r="14" fill="#7a5f2c"/><text x="928" y="64.5" class="t h" font-size="11" fill="#fff" text-anchor="middle">A</text><text x="220" y="122" class="t h" font-size="20" fill="#241c10">Projects</text><text x="220" y="142" class="t" font-size="10" fill="#8b7f6b">Portfolio</text><rect x="196" y="86" width="764" height="514" fill="#241c10" opacity=".28"/><rect x="290" y="104" width="560" height="462" rx="14" fill="#fff" stroke="#e6ded0"/><text x="318" y="142" class="t h" font-size="17" fill="#241c10">New project</text><text x="318" y="170" class="t h" font-size="8.5" fill="#8b7f6b">Title *</text><rect x="318" y="177" width="504" height="26" rx="7" fill="#faf7f2" stroke="#e6ded0"/><text x="329" y="193.42" class="t" font-size="9.5" fill="#241c10">EXAMPLE VILLA</text><text x="318" y="222" class="t h" font-size="8.5" fill="#8b7f6b">Portal code</text><rect x="318" y="229" width="504" height="26" rx="7" fill="#faf7f2" stroke="#e6ded0"/><text x="329" y="245.42" class="t" font-size="9.5" fill="#241c10">2601</text><text x="318" y="274" class="t h" font-size="8.5" fill="#8b7f6b">Start</text><text x="576.0" y="274" class="t h" font-size="8.5" fill="#8b7f6b">End</text><rect x="318" y="281" width="246.0" height="26" rx="7" fill="#faf7f2" stroke="#e6ded0"/><text x="329" y="297.42" class="t" font-size="9.5" fill="#241c10">01/09/2026</text><rect x="576.0" y="281" width="246.0" height="26" rx="7" fill="#faf7f2" stroke="#e6ded0"/><text x="587.0" y="297.42" class="t" font-size="9.5" fill="#241c10">01/12/2026</text><text x="318" y="326" class="t h" font-size="8.5" fill="#8b7f6b">Phase</text><rect x="318" y="333" width="504" height="26" rx="7" fill="#faf7f2" stroke="#e6ded0"/><text x="329" y="349.42" class="t" font-size="9.5" fill="#241c10">Schematic Design</text><path d="M804.5 344.2 L808 347.8 L811.5 344.2" fill="none" stroke="#8b7f6b" stroke-width="1.4" stroke-linecap="round" stroke-linejoin="round"/><text x="318" y="378" class="t h" font-size="8.5" fill="#8b7f6b">Lead Architect</text><rect x="318" y="385" width="504" height="26" rx="7" fill="#faf7f2" stroke="#e6ded0"/><text x="329" y="401.42" class="t" font-size="9.5" fill="#8b7f6b">— Select —</text><path d="M804.5 396.2 L808 399.8 L811.5 396.2" fill="none" stroke="#8b7f6b" stroke-width="1.4" stroke-linecap="round" stroke-linejoin="round"/><text x="318" y="430" class="t h" font-size="8.5" fill="#8b7f6b">Customer</text><rect x="318" y="437" width="504" height="26" rx="7" fill="#faf7f2" stroke="#e6ded0"/><text x="329" y="453.42" class="t" font-size="9.5" fill="#241c10">Customer A</text><rect x="640" y="522" width="64" height="28" rx="7" fill="#fff" stroke="#e6ded0"/><text x="672.0" y="539.42" class="t h" font-size="9.5" fill="#6b5f4d" text-anchor="middle">Cancel</text><rect x="714" y="522" width="108" height="28" rx="7" fill="#c5a059"/><text x="768.0" y="539.42" class="t h" font-size="9.5" fill="#fff" text-anchor="middle">Create project</text><rect x="810" y="572" width="138" height="19" rx="9.5" fill="#fff" stroke="#e6ded0"/><text x="879" y="585" class="t" font-size="8.5" fill="#8b7f6b" text-anchor="middle">illustration — not a screenshot</text></svg>
