<svg xmlns="http://www.w3.org/2000/svg" viewBox="0 0 960 600" width="960" height="600" role="img" aria-label="Share folder dialog">
<defs><style>
  .t{font-family:-apple-system,BlinkMacSystemFont,'Segoe UI',Roboto,Arial,sans-serif}
  .h{font-weight:700} .mo{font-family:ui-monospace,Menlo,Consolas,monospace}
</style></defs>
<rect x="0" y="0" width="960" height="600" fill="#faf7f2"/><rect x="0" y="0" width="960" height="34" fill="#efe8db"/><circle cx="22" cy="17" r="5.5" fill="#e0796b"/><circle cx="40" cy="17" r="5.5" fill="#e3b341"/><circle cx="58" cy="17" r="5.5" fill="#7bb87b"/><rect x="80" y="9" width="800" height="17" rx="8.5" fill="#fff" stroke="#e6ded0"/><text x="94" y="21.5" class="t" font-size="10" fill="#8b7f6b">your-erp-address/portal-app/files?project=PROJ-0001</text><rect x="0" y="34" width="196" height="566" fill="#241c10"/><rect x="16" y="50" width="26" height="26" rx="6" fill="#c5a059" opacity=".9"/><text x="50" y="62" class="t h" font-size="10" fill="#fff">ATA</text><text x="50" y="73" class="t" font-size="7.5" fill="#9c8c6e">ARCHITECTS</text><text x="16" y="100" class="t h" font-size="7.5" fill="#7a6b4f" letter-spacing="1">PROJECT MANAGEMENT</text><rect x="20" y="110" width="10" height="10" rx="2.5" fill="#5c5241"/><text x="38" y="119" class="t" font-size="10" fill="#b8ab92" font-weight="400">Dashboard</text><rect x="20" y="131" width="10" height="10" rx="2.5" fill="#5c5241"/><text x="38" y="140" class="t" font-size="10" fill="#b8ab92" font-weight="400">Org Chart</text><rect x="20" y="152" width="10" height="10" rx="2.5" fill="#5c5241"/><text x="38" y="161" class="t" font-size="10" fill="#b8ab92" font-weight="400">Projects</text><rect x="20" y="173" width="10" height="10" rx="2.5" fill="#5c5241"/><text x="38" y="182" class="t" font-size="10" fill="#b8ab92" font-weight="400">Teams</text><rect x="20" y="194" width="10" height="10" rx="2.5" fill="#5c5241"/><text x="38" y="203" class="t" font-size="10" fill="#b8ab92" font-weight="400">Gantt Chart</text><rect x="20" y="215" width="10" height="10" rx="2.5" fill="#5c5241"/><text x="38" y="224" class="t" font-size="10" fill="#b8ab92" font-weight="400">Tasks</text><rect x="20" y="236" width="10" height="10" rx="2.5" fill="#5c5241"/><text x="38" y="245" class="t" font-size="10" fill="#b8ab92" font-weight="400">Daily Task</text><rect x="20" y="257" width="10" height="10" rx="2.5" fill="#5c5241"/><text x="38" y="266" class="t" font-size="10" fill="#b8ab92" font-weight="400">Kanban</text><rect x="20" y="278" width="10" height="10" rx="2.5" fill="#5c5241"/><text x="38" y="287" class="t" font-size="10" fill="#b8ab92" font-weight="400">Calendar</text><rect x="20" y="299" width="10" height="10" rx="2.5" fill="#5c5241"/><text x="38" y="308" class="t" font-size="10" fill="#b8ab92" font-weight="400">Contracts</text><text x="16" y="330" class="t h" font-size="7.5" fill="#7a6b4f" letter-spacing="1">AI</text><rect x="8" y="336" width="180" height="19" rx="6" fill="#c5a059" opacity=".12"/><text x="38" y="349" class="t h" font-size="10" fill="#e6c47a">ATA AI CHAT</text><text x="16" y="371" class="t h" font-size="7.5" fill="#7a6b4f" letter-spacing="1">FILES</text><rect x="8" y="377" width="180" height="19" rx="6" fill="#c5a059" opacity=".2"/><rect x="8" y="377" width="3" height="19" rx="1.5" fill="#c5a059"/><rect x="20" y="381" width="10" height="10" rx="2.5" fill="#e6c47a"/><text x="38" y="390" class="t" font-size="10" fill="#fff" font-weight="600">Files</text><rect x="20" y="402" width="10" height="10" rx="2.5" fill="#5c5241"/><text x="38" y="411" class="t" font-size="10" fill="#b8ab92" font-weight="400">File Browser</text><rect x="20" y="423" width="10" height="10" rx="2.5" fill="#5c5241"/><text x="38" y="432" class="t" font-size="10" fill="#b8ab92" font-weight="400">Shared</text><rect x="20" y="444" width="10" height="10" rx="2.5" fill="#5c5241"/><text x="38" y="453" class="t" font-size="10" fill="#b8ab92" font-weight="400">Shares</text><rect x="20" y="465" width="10" height="10" rx="2.5" fill="#5c5241"/><text x="38" y="474" class="t" font-size="10" fill="#b8ab92" font-weight="400">Routing rules</text><rect x="20" y="486" width="10" height="10" rx="2.5" fill="#5c5241"/><text x="38" y="495" class="t" font-size="10" fill="#b8ab92" font-weight="400">File tools</text><text x="16" y="517" class="t h" font-size="7.5" fill="#7a6b4f" letter-spacing="1">ACCOUNT</text><rect x="20" y="527" width="10" height="10" rx="2.5" fill="#5c5241"/><text x="38" y="536" class="t" font-size="10" fill="#b8ab92" font-weight="400">Profile</text><rect x="20" y="548" width="10" height="10" rx="2.5" fill="#5c5241"/><text x="38" y="557" class="t" font-size="10" fill="#b8ab92" font-weight="400">Admin</text><rect x="196" y="34" width="764" height="52" fill="#fff"/><line x1="196" y1="86" x2="960" y2="86" stroke="#e6ded0" stroke-width="1"/><rect x="216" y="49" width="250" height="22" rx="11" fill="#faf7f2" stroke="#e6ded0"/><text x="232" y="64" class="t" font-size="9" fill="#8b7f6b">Search projects, teams, tasks, documents...</text><rect x="810" y="47" width="96" height="26" rx="13" fill="#c5a059"/><text x="858" y="64" class="t h" font-size="10" fill="#fff" text-anchor="middle">+ New Project</text><circle cx="928" cy="60" r="14" fill="#7a5f2c"/><text x="928" y="64.5" class="t h" font-size="11" fill="#fff" text-anchor="middle">A</text><text x="220" y="122" class="t h" font-size="20" fill="#241c10">Project files</text><rect x="196" y="86" width="764" height="514" fill="#241c10" opacity=".28"/><rect x="300" y="100" width="560" height="436" rx="14" fill="#fff" stroke="#e6ded0"/><rect x="322" y="118" width="26" height="26" rx="7" fill="#f3e6c8"/><text x="335" y="136" class="t h" font-size="12" fill="#7a5f2c" text-anchor="middle">↗</text><text x="358" y="136" class="t h" font-size="14" fill="#241c10">Share folder</text><text x="322" y="160" class="t" font-size="9" fill="#8b7f6b">01-DOCUMENTS/01-CLIENT DATA</text><text x="836" y="136" class="t" font-size="15" fill="#8b7f6b" text-anchor="end">×</text><line x1="300" y1="172" x2="860" y2="172" stroke="#e6ded0" stroke-width="1"/><text x="322" y="196" class="t h" font-size="7.5" fill="#8b7f6b" letter-spacing=".6">ADD PEOPLE</text><rect x="322" y="204" width="330" height="26" rx="7" fill="#faf7f2" stroke="#e6ded0"/><text x="333" y="220.24" class="t" font-size="9" fill="#8b7f6b">Search by email, username, or full name</text><text x="666" y="221" class="t" font-size="9" fill="#8b7f6b">Days</text><rect x="694" y="204" width="50" height="26" rx="7" fill="#faf7f2" stroke="#e6ded0"/><text x="705" y="220.42" class="t" font-size="9.5" fill="#241c10">30</text><rect x="322" y="242" width="11" height="11" rx="2.5" fill="#c5a059"/><text x="327.5" y="251" class="t h" font-size="9" fill="#fff" text-anchor="middle">✓</text><text x="340" y="251.5" class="t" font-size="9" fill="#241c10">Email the user when I add them</text><rect x="322" y="262" width="516" height="36" rx="8" fill="#faf7f2" stroke="#e6ded0"/><circle cx="342" cy="280" r="10" fill="#7a5f2c"/><text x="342" y="283.6" class="t h" font-size="9.0" fill="#fff" text-anchor="middle">S</text><text x="360" y="277" class="t h" font-size="9.5" fill="#241c10">Staff Two</text><text x="360" y="290" class="t" font-size="8" fill="#8b7f6b">staff.two@example.com</text><text x="822" y="284" class="t h" font-size="9" fill="#7a5f2c" text-anchor="end">+ Add</text><text x="322" y="328" class="t h" font-size="7.5" fill="#8b7f6b" letter-spacing=".6">PEOPLE WITH ACCESS</text><rect x="322" y="336" width="516" height="40" rx="8" fill="#faf7f2" stroke="#e6ded0"/><circle cx="342" cy="356" r="10" fill="#4a7a5c"/><text x="342" y="359.6" class="t h" font-size="9.0" fill="#fff" text-anchor="middle">C</text><text x="360" y="353" class="t h" font-size="9.5" fill="#241c10">Client One</text><text x="360" y="366" class="t" font-size="8" fill="#8b7f6b">client.one@example.com · expires 30/10/2026</text><rect x="768" y="345" width="62" height="22" rx="7" fill="#fff" stroke="#e8b4ae"/><text x="799.0" y="359.06" class="t h" font-size="8.5" fill="#96271c" text-anchor="middle">Revoke</text><text x="322" y="402" class="t h" font-size="7.5" fill="#8b7f6b" letter-spacing=".6">ANYONE WITH THE LINK</text><text x="322" y="426" class="t" font-size="9" fill="#8b7f6b">No active link.</text><text x="572" y="426" class="t" font-size="9" fill="#8b7f6b">Expiry (days)</text><rect x="640" y="410" width="46" height="26" rx="7" fill="#faf7f2" stroke="#e6ded0"/><text x="651" y="426.42" class="t" font-size="9.5" fill="#241c10">7</text><rect x="696" y="411" width="90" height="24" rx="7" fill="#c5a059"/><text x="741.0" y="426.24" class="t h" font-size="9" fill="#fff" text-anchor="middle">Create link</text><line x1="300" y1="484" x2="860" y2="484" stroke="#e6ded0" stroke-width="1"/><rect x="778" y="498" width="60" height="26" rx="7" fill="#fff" stroke="#e6ded0"/><text x="808.0" y="514.42" class="t h" font-size="9.5" fill="#6b5f4d" text-anchor="middle">Done</text><rect x="810" y="572" width="138" height="19" rx="9.5" fill="#fff" stroke="#e6ded0"/><text x="879" y="585" class="t" font-size="8.5" fill="#8b7f6b" text-anchor="middle">illustration — not a screenshot</text></svg>
